<svg width="144" height="73" viewBox="0 0 144 73" fill="none" xmlns="http://www.w3.org/2000/svg">
<g clip-path="url(#clip0_964_17569)">
<g clip-path="url(#clip1_964_17569)">
<path d="M101.426 28.1614C99.031 28.1614 96.9234 29.1556 95.3747 30.7111C89.6747 26.7503 81.9949 24.2006 73.4848 23.928L77.9075 3.91556L91.9898 7.09061C91.9898 10.5543 94.7999 13.3766 98.2486 13.3766C101.761 13.3766 104.587 10.4741 104.587 7.01043C104.587 3.54674 101.777 0.644287 98.2486 0.644287C95.7898 0.644287 93.6663 2.1356 92.6125 4.17213L77.0613 0.70843C76.2789 0.499966 75.5125 1.06121 75.305 1.84696L70.4512 23.912C62.005 24.2648 54.405 26.8144 48.689 30.7752C47.1403 29.1556 44.9529 28.1614 42.5579 28.1614C33.6806 28.1614 30.7747 40.124 38.9016 44.2131C38.6142 45.4799 38.4865 46.8269 38.4865 48.1739C38.4865 61.6118 53.5587 72.5 72.0638 72.5C90.6487 72.5 105.721 61.6118 105.721 48.1739C105.721 46.8269 105.577 45.4158 105.226 44.149C113.193 40.0438 110.255 28.1614 101.426 28.1614ZM51.7865 45.063C51.7865 41.5351 54.5966 38.6968 58.1251 38.6968C61.5739 38.6968 64.384 41.5191 64.384 45.063C64.384 48.5267 61.5739 51.349 58.1251 51.349C54.6125 51.365 51.7865 48.5267 51.7865 45.063ZM86.0024 60.0563C80.1907 65.8933 63.7932 65.8933 57.9814 60.0563C57.3428 59.4951 57.3428 58.5008 57.9814 57.8594C58.5403 57.2982 59.5302 57.2982 60.089 57.8594C64.5276 62.4296 79.2487 62.5098 83.8789 57.8594C84.4377 57.2982 85.4276 57.2982 85.9865 57.8594C86.6411 58.5008 86.6411 59.4951 86.0024 60.0563ZM85.8747 51.365C82.426 51.365 79.6159 48.5427 79.6159 45.079C79.6159 41.5512 82.426 38.7129 85.8747 38.7129C89.3873 38.7129 92.2134 41.5351 92.2134 45.079C92.1974 48.5267 89.3873 51.365 85.8747 51.365Z" fill="#737373"/>
</g>
</g>
<defs>
<clipPath id="clip0_964_17569">
<rect width="144" height="72" fill="white" transform="translate(0 0.5)"/>
</clipPath>
<clipPath id="clip1_964_17569">
<rect width="76" height="72" fill="white" transform="translate(34 0.5)"/>
</clipPath>
</defs>
</svg>
